<?xml version="1.0" encoding="UTF-8"?>
<svg width="810.07" height="1091.6" version="1.1" viewBox="0 0 810.07 1091.6" xmlns="http://www.w3.org/2000/svg" xmlns:cc="http://creativecommons.org/ns#" xmlns:dc="http://purl.org/dc/elements/1.1/" xmlns:rdf="http://www.w3.org/1999/02/22-rdf-syntax-ns#">
 <metadata>
  <rdf:RDF>
   <cc:Work rdf:about="">
    <dc:format>image/svg+xml</dc:format>
    <dc:type rdf:resource="http://purl.org/dc/dcmitype/StillImage"/>
    <dc:title>Symbol and Text - White</dc:title>
   </cc:Work>
  </rdf:RDF>
 </metadata>
 <!-- Generator: Sketch 51.2 (57519) - http://www.bohemiancoding.com/sketch -->
 <title>Symbol and Text - White</title>
 <desc>Created with Sketch.</desc>
 <g id="Symbol-and-Text---White" transform="translate(-1030 325.27)" fill="#fff" fill-rule="evenodd">
  <path id="STUDENT-ROBOTICS" d="m1102.3 448.31c-8.1897 0-15.62 1.4344-22.289 4.3008-6.6687 2.8664-11.932 7.0187-15.793 12.459-3.8609 5.4403-5.7911 11.846-5.7911 19.217 0 20.123 12.81 32.057 38.432 35.801 10.179 1.5209 17.607 3.7725 22.287 6.7559 4.6798 2.9834 7.0215 7.1082 7.0215 12.373 0 4.3288-2.3691 7.954-7.1075 10.879-4.7383 2.9249-10.384 4.3887-16.936 4.3887-6.0838 0-11.349-0.87789-15.795-2.6328-4.4459-1.7549-9.0077-4.563-13.688-8.4238-1.755-1.404-3.7439-2.1055-5.9668-2.1055-2.8079 0-5.2064 1.0229-7.1953 3.0703-1.989 2.0474-2.9844 4.4165-2.9844 7.1074 0 3.3928 1.5794 6.4929 4.7383 9.3008 5.7327 5.0308 11.876 8.5992 18.428 10.705s14.039 3.1602 22.463 3.1602c7.9557 0 15.384-1.4932 22.287-4.4766 6.9027-2.9834 12.431-7.2533 16.584-12.811s6.2305-12.02 6.2305-19.391c0-7.8387-1.5207-14.127-4.5625-18.865-3.0419-4.7383-7.5763-8.483-13.602-11.232s-14.069-5.0009-24.131-6.7559c-8.8916-1.6379-15.413-3.7445-19.566-6.3184-4.1533-2.5739-6.2304-6.3755-6.2304-11.406 0-4.4458 2.0183-8.0436 6.0547-10.793 4.0363-2.7494 9.7406-4.125 17.111-4.125 4.3288 0 9.212 1.0249 14.652 3.0723 5.4403 2.0474 9.6828 4.299 12.725 6.7559 1.404 1.053 2.9834 1.5801 4.7383 1.5801 2.6909 0 5.0306-1.0249 7.0195-3.0723 1.989-2.0474 2.9825-4.4165 2.9825-7.1074 0-3.5098-1.697-6.6099-5.0899-9.3008-4.3288-3.6268-9.7392-6.5525-16.232-8.7754s-13.424-3.334-20.795-3.334zm174.96 1.5801c-3.2758 0-5.9663 1.0229-8.0722 3.0703-2.106 2.0474-3.1582 4.5929-3.1582 7.6348v63.527c0 9.7106 2.0457 18.311 6.1406 25.799 4.0948 7.4877 9.8579 13.337 17.287 17.549 7.4292 4.2118 15.881 6.3164 25.357 6.3164s17.901-2.1046 25.272-6.3164c7.3707-4.2118 13.104-10.061 17.199-17.549 4.0949-7.4877 6.1406-16.088 6.1406-25.799v-63.527c0-3.1589-0.9347-5.7337-2.8066-7.7227s-4.3292-2.9824-7.3711-2.9824-5.4404 0.9935-7.1953 2.9824c-1.755 1.9889-2.6328 4.5638-2.6328 7.7227v63.527c0 5.6158-1.3149 10.619-3.9473 15.006-2.6324 4.3873-6.1439 7.7499-10.531 10.09-4.3874 2.3399-9.0962 3.5098-14.127 3.5098-4.7968 0-9.2705-1.1698-13.424-3.5098-4.1533-2.3399-7.4591-5.7025-9.916-10.09-2.4569-4.3874-3.6856-9.3901-3.6856-15.006v-63.527c0-3.0419-1.0523-5.5873-3.1582-7.6348-2.1059-2.0474-4.5632-3.0703-7.3711-3.0703zm-112.67 0.17578c-3.0419 0-5.5854 0.93471-7.6328 2.8066-2.0474 1.8719-3.0723 4.2704-3.0723 7.1953 0 3.0419 0.9955 5.4992 2.9844 7.3711s4.5618 2.8086 7.7207 2.8086h27.553v91.957c0 3.0419 1.0523 5.5874 3.1582 7.6348 2.106 2.0474 4.7964 3.0703 8.0723 3.0703s6.0251-1.0229 8.2481-3.0703c2.2229-2.0474 3.3359-4.5929 3.3359-7.6348v-91.957h27.551c3.1588 0 5.7337-0.90729 7.7226-2.7207 1.9889-1.8134 2.9825-4.2413 2.9825-7.2832 0-3.0419-0.9936-5.4992-2.9825-7.3711-1.9889-1.8719-4.5638-2.8066-7.7226-2.8066zm230.25 0c-3.0419 0-5.5873 1.0229-7.6348 3.0703-2.0474 2.0474-3.0703 4.5929-3.0703 7.6348v101.43c0 3.0419 1.0229 5.5874 3.0703 7.6348 2.0475 2.0474 4.5929 3.0703 7.6348 3.0703h41.941c10.998 0 20.447-2.7199 28.344-8.1602 7.8972-5.4403 13.921-12.81 18.074-22.111 4.1533-9.3011 6.2304-19.685 6.2304-31.15s-2.0771-21.849-6.2304-31.15c-4.1534-9.3011-10.177-16.671-18.074-22.111-7.8972-5.4403-17.346-8.1602-28.344-8.1602zm119.86 0c-3.0418 0-5.5873 1.0229-7.6347 3.0703-2.0474 2.0474-3.0703 4.5929-3.0703 7.6348v101.43c0 3.0419 1.0229 5.5874 3.0703 7.6348 2.0474 2.0474 4.5929 3.0703 7.6347 3.0703h58.789c3.0419 0 5.5874-0.93471 7.6348-2.8066 2.0474-1.8719 3.0703-4.2704 3.0703-7.1953 0-2.6909-1.0229-5.06-3.0703-7.1074-2.0474-2.0474-4.5929-3.0723-7.6348-3.0723h-47.559v-32.465h39.662c3.1589 0 5.7318-0.9073 7.7207-2.7207 1.9889-1.8134 2.9844-4.1826 2.9844-7.1074 0-3.0419-1.0248-5.5286-3.0723-7.459-2.0474-1.9304-4.5909-2.8945-7.6328-2.8945h-39.662v-29.834h47.559c3.1589 0 5.7337-0.90729 7.7227-2.7207 1.9889-1.8134 2.9824-4.1825 2.9824-7.1074 0-3.0419-1.0229-5.5286-3.0703-7.459-2.0474-1.9304-4.5929-2.8945-7.6348-2.8945zm94.766 0c-3.0418 0-5.5873 1.0229-7.6347 3.0703-2.0474 2.0474-3.0703 4.5929-3.0703 7.6348v102.31c0 2.8079 0.8779 5.1496 2.6328 7.0215 1.7549 1.8719 4.0359 2.8066 6.8437 2.8066 2.9249 0 5.2941-0.93471 7.1075-2.8066 1.8134-1.8719 2.7187-4.2136 2.7187-7.0215v-74.934l64.406 81.779c0.7019 0.93596 1.8424 1.6669 3.4218 2.1934 1.5795 0.52648 3.1883 0.78906 4.8262 0.78906 3.0419 0 5.5873-1.0229 7.6348-3.0703 2.0474-2.0474 3.0703-4.5929 3.0703-7.6348v-102.31c0-2.8079-0.8779-5.1496-2.6328-7.0215-1.755-1.8719-4.0359-2.8066-6.8438-2.8066s-5.1182 0.93471-6.9316 2.8066c-1.8135 1.8719-2.7207 4.2136-2.7207 7.0215v75.461l-63.879-81.428c-0.819-1.17-2.077-2.1066-3.7735-2.8086-1.6964-0.70196-3.4208-1.0527-5.1758-1.0527zm115.47 0c-3.0419 0-5.5854 0.93471-7.6328 2.8066-2.0474 1.8719-3.0723 4.2704-3.0723 7.1953 0 3.0419 0.9955 5.4992 2.9844 7.3711s4.5618 2.8086 7.7207 2.8086h27.553v91.957c0 3.0419 1.0523 5.5874 3.1583 7.6348 2.1059 2.0474 4.7983 3.0703 8.0742 3.0703s6.0251-1.0229 8.248-3.0703c2.2229-2.0474 3.334-4.5929 3.334-7.6348v-91.957h27.553c3.1589 0 5.7318-0.90729 7.7207-2.7207 1.989-1.8134 2.9844-4.2413 2.9844-7.2832 0-3.0419-0.9954-5.4992-2.9844-7.3711-1.9889-1.8719-4.5618-2.8066-7.7207-2.8066zm-318.87 20.182h28.957c10.413 0 18.28 3.8898 23.604 11.67 5.3233 7.7802 7.9844 17.637 7.9844 29.57s-2.6317 21.79-7.8965 29.57c-5.2648 7.7802-13.162 11.67-23.691 11.67h-28.957z" stroke-width=".70197"/>
  <path id="Combined-Shape" d="m1704.2 234.31c-26.42 33.089-59.106 61.516-96.95 83.365-106.6 61.548-237.95 61.548-344.55 0-36.733-21.208-68.606-48.613-94.607-80.463 138.06-143.18 252.2-108.3 252.2-159.14 0-52.963-196.92-87.823-196.92-124.57 0-36.586 115.68-64.375 214.19-64.616 98.512 0.24112 214.19 28.031 214.19 64.616 0 36.745-196.92 71.606-196.92 124.57 0 50.491 112.59 16.426 249.38 156.24zm28.653-41.867c-73.327-61.451-141.6-99.575-204.81-114.37 31.37-25.292 207.85-89.631 207.85-124.07 0-34.238-151.75-116.08-297.05-117.04v-9e-3c-0.43 0-0.8602 7.2e-4 -1.2904 2e-3 -0.4302-1e-3 -0.8604-2e-3 -1.2905-2e-3v9e-3c-145.3 0.96248-297.05 82.802-297.05 117.04 0 34.44 176.48 98.779 207.85 124.07-64.202 15.027-133.62 54.12-208.26 117.28-31.145-52.393-48.381-113-48.381-176.06 0-123.1 65.671-236.84 172.28-298.39 106.6-61.548 237.95-61.548 344.55 0 106.6 61.548 172.28 175.29 172.28 298.39 0 61.9-16.606 121.43-46.672 173.16z" fill-rule="nonzero" stroke-width="1.4356"/>
  <path d="m1196.5 639.96c-11.348 0-21.556 2.8081-30.623 8.4238-9.0671 5.6158-16.147 13.248-21.236 22.9-5.0893 9.6521-7.6329 20.269-7.6329 31.852s2.5436 22.201 7.6329 31.854c5.0893 9.6521 12.169 17.285 21.236 22.9 9.0671 5.6158 19.274 8.4238 30.623 8.4238 11.349 0 21.556-2.8081 30.623-8.4238 9.0671-5.6158 16.174-13.248 21.322-22.9 5.1478-9.6521 7.7208-20.271 7.7208-31.854s-2.573-22.199-7.7208-31.852c-5.1478-9.6521-12.255-17.285-21.322-22.9-9.0671-5.6158-19.274-8.4238-30.623-8.4238zm236.91 0c-11.349 0-21.556 2.8081-30.623 8.4238-9.0672 5.6158-16.145 13.248-21.234 22.9-5.0893 9.6521-7.6348 20.269-7.6348 31.852s2.5455 22.201 7.6348 31.854c5.0893 9.6521 12.167 17.285 21.234 22.9 9.0671 5.6158 19.274 8.4238 30.623 8.4238 11.348 0 21.556-2.8081 30.623-8.4238 9.0671-5.6158 16.174-13.248 21.322-22.9 5.1478-9.6521 7.7227-20.271 7.7227-31.854s-2.5749-22.199-7.7227-31.852c-5.1478-9.6521-12.255-17.285-21.322-22.9-9.0672-5.6158-19.275-8.4238-30.623-8.4238zm361.69 0c-8.1897 0-15.618 1.4324-22.287 4.2988-6.6687 2.8664-11.934 7.0207-15.795 12.461s-5.791 11.844-5.791 19.215c0 20.123 12.81 32.057 38.432 35.801 10.178 1.5209 17.607 3.7744 22.287 6.7578 4.6799 2.9834 7.0214 7.1063 7.0214 12.371 0 4.3288-2.3691 7.956-7.1074 10.881-4.7383 2.9249-10.384 4.3867-16.936 4.3867-6.0838 0-11.349-0.8779-15.795-2.6328-4.4458-1.7549-9.0076-4.561-13.688-8.4219-1.7549-1.404-3.7439-2.1074-5.9667-2.1074-2.808 0-5.2065 1.0248-7.1954 3.0723-1.9889 2.0474-2.9843 4.4165-2.9843 7.1074 0 3.3928 1.5793 6.4929 4.7382 9.3008 5.7328 5.0308 11.876 8.5992 18.428 10.705 6.5517 2.1059 14.039 3.1582 22.463 3.1582 7.9556 0 15.384-1.4912 22.287-4.4746 6.9027-2.9834 12.431-7.2533 16.584-12.811 4.1534-5.5573 6.2304-12.022 6.2304-19.393 0-7.8387-1.5207-14.127-4.5625-18.865-3.0419-4.7383-7.5763-8.4811-13.602-11.23-6.0253-2.7494-14.069-5.0029-24.131-6.7578-8.8917-1.6379-15.413-3.7425-19.566-6.3164-4.1533-2.5739-6.2305-6.3774-6.2305-11.408 0-4.4458 2.0184-8.0436 6.0547-10.793 4.0363-2.7494 9.7407-4.123 17.111-4.123 4.3289 0 9.212 1.0229 14.652 3.0703 5.4402 2.0474 9.6827 4.299 12.725 6.7558 1.4039 1.053 2.9833 1.5801 4.7383 1.5801 2.6908 0 5.0306-1.0229 7.0195-3.0703 1.9889-2.0474 2.9824-4.4165 2.9824-7.1074 0-3.5098-1.6969-6.6099-5.0898-9.3008-4.3288-3.6268-9.7392-6.5525-16.232-8.7754-6.4933-2.2229-13.424-3.334-20.795-3.334zm-87.045 0.87696c-12.05-1e-5 -22.871 2.6611-32.465 7.9844-9.5937 5.3233-17.11 12.725-22.551 22.201s-8.1621 20.18-8.1621 32.113c0 13.454 2.8668 24.92 8.5996 34.396 5.7328 9.4766 13.397 16.643 22.99 21.498 9.5936 4.8553 20.122 7.2832 31.588 7.2832 10.296 0 20.007-2.2809 29.133-6.8438 1.755-0.81896 3.0992-1.9888 4.0352-3.5098 0.9359-1.5209 1.4043-3.2179 1.4043-5.0898 0-2.5739-0.8779-4.9724-2.6328-7.1953-2.106-2.5739-4.6789-3.8594-7.7207-3.8594-1.638 0-3.5113 0.46638-5.6172 1.4023-5.2648 2.6909-11.465 4.0371-18.602 4.0371-12.05 0-21.79-3.5684-29.219-10.705-7.4292-7.1367-11.144-17.609-11.144-31.414 0-8.0727 1.6381-15.237 4.914-21.496 3.2758-6.2592 7.9552-11.115 14.039-14.566 6.0837-3.4514 13.22-5.1777 21.41-5.1777 6.6687 0 12.869 1.3462 18.602 4.0371 1.9889 1.053 3.9778 1.5801 5.9668 1.5801 2.9248 0 5.3234-1.2286 7.1953-3.6856 1.7549-2.3399 2.6328-4.7384 2.6328-7.1953 0-4.0948-1.8126-7.0792-5.4394-8.9512-8.8917-4.5628-18.544-6.8437-28.957-6.8437zm-667.4 0.87695c-3.0419 0-5.5855 1.0248-7.6329 3.0723-2.0474 2.0474-3.0722 4.5909-3.0722 7.6328v101.44c0 3.0419 1.258 5.5854 3.7734 7.6328 2.5154 2.0474 5.4704 3.0723 8.8633 3.0723 2.8079 0 5.0594-0.99547 6.7559-2.9844 1.6964-1.989 2.5449-4.5618 2.5449-7.7207v-34.047h32.816c5.069 0.89717 9.0963 1.2286 11.846 3.6855 2.7494 2.4569 4.125 5.7921 4.125 10.004 0 14.741 4.2111 24.51 12.635 29.307 2.34 1.2869 4.9129 1.9316 7.7207 1.9316 3.6269 0 6.3193-1.0543 8.0743-3.1602 1.4039-1.755 2.1054-3.6851 2.1054-5.791 0-1.6379-0.4389-3.2173-1.3164-4.7383-0.8774-1.5209-2.0767-2.7496-3.5976-3.6856-1.638-0.81899-2.6903-2.0182-3.1582-3.5976-0.468-1.5794-0.9364-4.1818-1.4043-7.8086 0-1.7549-0.1764-3.5695-0.5274-5.4414-0.7019-8.6576-4.7386-15.559-12.109-20.707 5.0308-3.2759 9.1262-7.6927 12.285-13.25 3.1589-5.5573 4.7383-11.262 4.7383-17.111 0-7.1367-1.6088-13.57-4.8262-19.303-3.2173-5.7328-7.5166-10.238-12.898-13.514-5.3818-3.2759-11.114-4.9141-17.197-4.9141zm240.78 0c-3.0418 0-5.5854 1.0248-7.6328 3.0723-2.0474 2.0474-3.0722 4.5909-3.0722 7.6328v101.44c0 3.0419 1.0248 5.5854 3.0722 7.6328 2.0474 2.0474 4.591 3.0723 7.6328 3.0723h43.697c10.998 0 20.474-2.7493 28.43-8.248 7.9556-5.4988 11.934-15.21 11.934-29.133 0-7.9557-1.9596-14.448-5.8789-19.479-3.9193-5.0308-8.9789-8.7755-15.18-11.232 4.6798-2.3399 8.2776-5.5281 10.793-9.5644 2.5154-4.0364 3.7734-8.6864 3.7734-13.951 0-20.825-11.115-31.238-33.344-31.238zm225.51 0c-3.0419 0-5.5874 0.93666-7.6348 2.8086-2.0474 1.8719-3.0703 4.2704-3.0703 7.1953 0 3.0419 0.9934 5.4992 2.9824 7.3711 1.9889 1.8719 4.5637 2.8066 7.7227 2.8066h27.553v91.959c0 3.0419 1.0522 5.5854 3.1582 7.6328 2.1059 2.0474 4.7964 3.0723 8.0723 3.0723 3.2758 0 6.0251-1.0248 8.248-3.0723 2.2229-2.0474 3.334-4.5909 3.334-7.6328v-91.959h27.553c3.0909 0.6516 5.7337-0.90534 7.7227-2.7188 1.9889-1.8134 2.9824-4.2413 2.9824-7.2832 0-3.0419-0.9935-5.4992-2.9824-7.3711-1.989-1.8719-4.5638-2.8086-7.7227-2.8086zm112.67 0c-3.2759 0-5.9664 1.0248-8.0723 3.0723-2.106 2.0474-3.1602 4.5909-3.1602 7.6328v101.44c0 3.0419 1.0249 5.5854 3.0723 7.6328 2.0474 2.0474 4.6497 3.0723 7.8086 3.0723 2.9248 0 5.4997-1.0248 7.7227-3.0723 2.2228-2.0474 3.3339-4.5909 3.3339-7.6328v-101.44c0-3.0419-1.0542-5.5854-3.1601-7.6328-2.106-2.0474-4.6201-3.0723-7.5449-3.0723zm-423.11 19.305c7.0197 0 13.337 1.8714 18.953 5.6152 5.6157 3.7438 10.003 8.8034 13.162 15.18 3.1589 6.3762 4.7383 13.484 4.7383 21.322s-1.5794 14.946-4.7383 21.322c-3.1589 6.3762-7.5464 11.438-13.162 15.182-5.6158 3.7438-11.934 5.6152-18.953 5.6152-7.1367 0-13.484-1.842-19.041-5.5273s-9.8859-8.7469-12.986-15.182c-3.1004-6.4348-4.6504-13.571-4.6504-21.41s1.55-14.973 4.6504-21.408c3.1004-6.4347 7.429-11.496 12.986-15.182 5.5573-3.6854 11.904-5.5273 19.041-5.5273zm236.91 0c7.0197 0 13.337 1.8714 18.953 5.6152 5.6158 3.7438 10.003 8.8034 13.162 15.18 3.1589 6.3762 4.7383 13.484 4.7383 21.322s-1.5794 14.946-4.7383 21.322c-3.1588 6.3762-7.5463 11.438-13.162 15.182-5.6157 3.7438-11.933 5.6152-18.953 5.6152-7.1367 0-13.484-1.842-19.041-5.5273s-9.886-8.7469-12.986-15.182c-3.1004-6.4348-4.6504-13.571-4.6504-21.41s1.55-14.973 4.6504-21.408c3.1003-6.4347 7.429-11.496 12.986-15.182 5.5573-3.6854 11.904-5.5273 19.041-5.5273zm-381.52 0.87695h38.432c2.0823 0.3147 4.1537 0.8191 6.1426 2.457 1.9889 1.6379 3.6271 3.8326 4.9141 6.582 1.2869 2.7494 1.9296 5.7612 1.9296 9.0371 0 3.8608-0.6427 7.4586-1.9296 10.793-1.287 3.3344-2.9252 5.9954-4.9141 7.9844s-4.0367 2.9844-6.1426 2.9844h-38.432zm241.65 0.52734h28.955c4.3288 0 7.6934 1.1993 10.092 3.5977s3.5976 5.9962 3.5976 10.793c0 3.9778-1.3168 7.1366-3.9492 9.4766-2.6324 2.3399-5.703 3.5098-9.2129 3.5098h-29.482zm0 48.084h30.359c5.2648 0 9.711 1.0542 13.338 3.1602 3.6268 2.1059 5.4394 6.609 5.4394 13.512 0 5.6158-1.55 9.8857-4.6504 12.811-3.1003 2.9249-7.3996 4.3887-12.898 4.3887h-31.588z" stroke-width=".70197"/>
 </g>
</svg>
