<?xml version="1.0" encoding="UTF-8"?>
<svg width="2870px" height="480px" viewBox="0 0 2870 480" version="1.1" xmlns="http://www.w3.org/2000/svg" xmlns:xlink="http://www.w3.org/1999/xlink">
    <!-- Generator: Sketch 51.2 (57519) - http://www.bohemiancoding.com/sketch -->
    <title>Symbol and Text</title>
    <desc>Created with Sketch.</desc>
    <defs></defs>
    <g id="Symbol-and-Text" stroke="none" stroke-width="1" fill="none" fill-rule="evenodd">
        <text id="STUDENT-ROBOTICS" font-family="Quicksand-Bold, Quicksand" font-size="250" font-weight="bold" letter-spacing="-8" fill="#000000">
            <tspan x="547" y="326">STUDENT ROBOTIC</tspan>
            <tspan x="2730.5" y="326">S</tspan>
        </text>
        <path d="M427.531721,389.777046 C409.128308,412.825276 386.360773,432.626699 360.000001,447.846097 C285.743742,490.717968 194.256258,490.717968 119.999999,447.846097 C94.4131183,433.073505 72.2115922,413.983974 54.1003876,391.798544 C150.266762,292.062171 229.769803,316.360002 229.769803,280.948833 C229.769803,244.057191 92.601254,219.774661 92.601254,194.179261 C92.601254,168.695222 173.17794,149.338165 241.797753,149.17021 C310.417566,149.338165 390.994252,168.695222 390.994252,194.179261 C390.994252,219.774661 253.825703,244.057191 253.825703,280.948833 C253.825703,316.118721 332.249019,292.390514 427.531711,389.777058 Z M447.490129,360.614458 C396.41359,317.809942 348.860093,291.254733 304.829638,280.948833 C326.680443,263.331576 449.612276,218.515642 449.612276,194.525802 C449.612276,170.677202 343.909141,113.670738 242.696629,113.000315 L242.696629,112.99435 C242.397048,112.99435 242.097421,112.994849 241.797753,112.995844 C241.498084,112.994849 241.198458,112.99435 240.898876,112.99435 L240.898876,113.000315 C139.686364,113.670738 33.9832297,170.677202 33.9832297,194.525802 C33.9832297,218.515642 156.915063,263.331576 178.765868,280.948833 C134.0451,291.41631 85.6899551,318.646605 33.7004327,362.639718 C12.0057703,326.144566 -9.25692449e-07,283.927008 5.68434189e-14,240 C-1.80691421e-06,154.256259 45.7437394,75.0257743 119.999999,32.1539033 C194.256258,-10.7179678 285.743742,-10.7179678 360.000001,32.1539033 C434.256261,75.0257743 480.000002,154.256259 480,240 C480.000001,283.116781 468.433035,324.58659 447.490129,360.614458 Z" id="Combined-Shape" fill="#3270ED" fill-rule="nonzero"></path>
    </g>
</svg>