<?xml version="1.0" encoding="UTF-8" standalone="no"?>
<svg
   xmlns:dc="http://purl.org/dc/elements/1.1/"
   xmlns:cc="http://creativecommons.org/ns#"
   xmlns:rdf="http://www.w3.org/1999/02/22-rdf-syntax-ns#"
   xmlns:svg="http://www.w3.org/2000/svg"
   xmlns="http://www.w3.org/2000/svg"
   xmlns:sodipodi="http://sodipodi.sourceforge.net/DTD/sodipodi-0.dtd"
   xmlns:inkscape="http://www.inkscape.org/namespaces/inkscape"
   width="810.0722"
   height="1091.582"
   viewBox="0 0 810.0722 1091.582"
   version="1.1"
   id="svg899"
   sodipodi:docname="logo-text-white-vertical.svg"
   inkscape:version="0.92.4 5da689c313, 2019-01-14">
  <metadata
     id="metadata903">
    <rdf:RDF>
      <cc:Work
         rdf:about="">
        <dc:format>image/svg+xml</dc:format>
        <dc:type
           rdf:resource="http://purl.org/dc/dcmitype/StillImage" />
        <dc:title>Symbol and Text - White</dc:title>
      </cc:Work>
    </rdf:RDF>
  </metadata>
  <sodipodi:namedview
     pagecolor="#ffffff"
     bordercolor="#666666"
     borderopacity="1"
     objecttolerance="10"
     gridtolerance="10"
     guidetolerance="10"
     inkscape:pageopacity="0"
     inkscape:pageshadow="2"
     inkscape:window-width="1349"
     inkscape:window-height="678"
     id="namedview901"
     showgrid="false"
     inkscape:pagecheckerboard="true"
     showguides="false"
     fit-margin-top="0"
     fit-margin-left="0"
     fit-margin-right="0"
     fit-margin-bottom="0"
     inkscape:zoom="0.22856955"
     inkscape:cx="445.24868"
     inkscape:cy="439.11813"
     inkscape:window-x="0"
     inkscape:window-y="719"
     inkscape:window-maximized="0"
     inkscape:current-layer="Symbol-and-Text---White" />
  <!-- Generator: Sketch 51.2 (57519) - http://www.bohemiancoding.com/sketch -->
  <title
     id="title890">Symbol and Text - White</title>
  <desc
     id="desc892">Created with Sketch.</desc>
  <defs
     id="defs894" />
  <g
     id="Symbol-and-Text---White"
     style="fill:none;fill-rule:evenodd;stroke:none;stroke-width:1"
     transform="translate(-1029.9639,325.26724)">
    <path
       style="fill:#ffffff;stroke-width:0.70196825"
       d="m 1102.2676,448.31445 c -8.1897,0 -15.6204,1.43438 -22.2891,4.30078 -6.6687,2.86637 -11.9321,7.01871 -15.7929,12.45899 -3.8609,5.44028 -5.7911,11.84608 -5.7911,19.2168 0,20.12318 12.8097,32.05694 38.4317,35.80078 10.1786,1.52093 17.6073,3.77247 22.2871,6.75586 4.6798,2.98337 7.0215,7.10824 7.0215,12.37304 0,4.32881 -2.3691,7.95403 -7.1075,10.87891 -4.7383,2.92489 -10.3838,4.38867 -16.9355,4.38867 -6.0838,0 -11.3491,-0.87789 -15.7949,-2.63281 -4.4459,-1.75493 -9.0077,-4.56301 -13.6875,-8.42383 -1.755,-1.40395 -3.7439,-2.10547 -5.9668,-2.10547 -2.8079,0 -5.2064,1.0229 -7.1953,3.07031 -1.989,2.04743 -2.9844,4.41652 -2.9844,7.10743 0,3.39285 1.5794,6.49289 4.7383,9.30078 5.7327,5.0308 11.876,8.59916 18.4277,10.70508 6.5517,2.10592 14.0392,3.16015 22.4629,3.16015 7.9557,0 15.3844,-1.49319 22.2871,-4.47656 6.9027,-2.9834 12.4307,-7.25327 16.584,-12.81055 4.1533,-5.55728 6.2305,-12.01992 6.2305,-19.39062 0,-7.83868 -1.5207,-14.12693 -4.5625,-18.86524 -3.0419,-4.7383 -7.5763,-8.48302 -13.6016,-11.23242 -6.0253,-2.7494 -14.0693,-5.00093 -24.1309,-6.75586 -8.8916,-1.63792 -15.413,-3.74447 -19.5664,-6.31836 -4.1533,-2.57388 -6.2304,-6.37547 -6.2304,-11.40625 0,-4.44583 2.0183,-8.04357 6.0547,-10.79297 4.0363,-2.74939 9.7406,-4.125 17.1113,-4.125 4.3288,0 9.212,1.02486 14.6523,3.07227 5.4403,2.04743 9.6828,4.29897 12.7246,6.75586 1.404,1.05296 2.9834,1.58008 4.7383,1.58008 2.6909,0 5.0306,-1.02486 7.0195,-3.07227 1.989,-2.04743 2.9825,-4.41651 2.9825,-7.10742 0,-3.50985 -1.697,-6.60987 -5.0899,-9.30078 -4.3288,-3.62685 -9.7392,-6.55247 -16.2324,-8.77539 -6.4932,-2.22292 -13.4242,-3.33399 -20.7949,-3.33399 z m 174.9648,1.58008 c -3.2758,0 -5.9663,1.0229 -8.0722,3.07031 -2.106,2.04743 -3.1582,4.59289 -3.1582,7.63477 v 63.52734 c 0,9.71061 2.0457,18.31114 6.1406,25.79883 4.0948,7.48769 9.8579,13.33699 17.2871,17.54883 7.4292,4.21182 15.8808,6.31641 25.3574,6.31641 9.4766,0 17.9008,-2.10459 25.2715,-6.31641 7.3707,-4.21184 13.1044,-10.06114 17.1992,-17.54883 4.0949,-7.48769 6.1406,-16.08822 6.1406,-25.79883 v -63.52734 c 0,-3.15888 -0.9347,-5.73374 -2.8066,-7.72266 -1.8719,-1.98892 -4.3292,-2.98242 -7.3711,-2.98242 -3.0419,0 -5.4404,0.9935 -7.1953,2.98242 -1.755,1.98892 -2.6328,4.56378 -2.6328,7.72266 v 63.52734 c 0,5.61579 -1.3149,10.61851 -3.9473,15.00586 -2.6324,4.38732 -6.1439,7.74993 -10.5312,10.08985 -4.3874,2.33991 -9.0962,3.50976 -14.127,3.50976 -4.7968,0 -9.2705,-1.16985 -13.4238,-3.50976 -4.1533,-2.33992 -7.4591,-5.70253 -9.916,-10.08985 -2.4569,-4.38735 -3.6856,-9.39007 -3.6856,-15.00586 v -63.52734 c 0,-3.04188 -1.0523,-5.58734 -3.1582,-7.63477 -2.1059,-2.04741 -4.5632,-3.07031 -7.3711,-3.07031 z m -112.666,0.17578 c -3.0419,0 -5.5854,0.93471 -7.6328,2.80664 -2.0474,1.87192 -3.0723,4.27044 -3.0723,7.19532 0,3.04188 0.9955,5.49917 2.9844,7.37109 1.9889,1.87192 4.5618,2.80859 7.7207,2.80859 h 27.5527 v 91.95703 c 0,3.04188 1.0523,5.58736 3.1582,7.63477 2.106,2.04743 4.7964,3.07031 8.0723,3.07031 3.2759,0 6.0251,-1.02288 8.2481,-3.07031 2.2229,-2.04741 3.3359,-4.59289 3.3359,-7.63477 v -91.95703 h 27.5508 c 3.1588,0 5.7337,-0.90729 7.7226,-2.7207 1.9889,-1.81344 2.9825,-4.24131 2.9825,-7.2832 0,-3.04188 -0.9936,-5.49918 -2.9825,-7.3711 -1.9889,-1.87193 -4.5638,-2.80664 -7.7226,-2.80664 z m 230.2461,0 c -3.0419,0 -5.5873,1.02288 -7.6348,3.07031 -2.0474,2.04742 -3.0703,4.59289 -3.0703,7.63477 v 101.43359 c 0,3.04188 1.0229,5.58736 3.0703,7.63477 2.0475,2.04743 4.5929,3.07031 7.6348,3.07031 h 41.9414 c 10.9976,0 20.4466,-2.71987 28.3438,-8.16015 7.8972,-5.44029 13.9208,-12.8102 18.0742,-22.11133 4.1533,-9.30112 6.2304,-19.68486 6.2304,-31.15039 0,-11.46553 -2.0771,-21.84929 -6.2304,-31.15039 -4.1534,-9.30113 -10.177,-16.67104 -18.0742,-22.11133 -7.8972,-5.44028 -17.3462,-8.16016 -28.3438,-8.16016 z m 119.8613,0 c -3.0418,0 -5.5873,1.02288 -7.6347,3.07031 -2.0474,2.04742 -3.0703,4.59289 -3.0703,7.63477 v 101.43359 c 0,3.04188 1.0229,5.58736 3.0703,7.63477 2.0474,2.04743 4.5929,3.07031 7.6347,3.07031 h 58.7891 c 3.0419,0 5.5874,-0.93471 7.6348,-2.80664 2.0474,-1.87192 3.0703,-4.27043 3.0703,-7.19531 0,-2.69089 -1.0229,-5.06001 -3.0703,-7.10742 -2.0474,-2.04743 -4.5929,-3.07227 -7.6348,-3.07227 h -47.5586 v -32.46484 h 39.6621 c 3.1589,0 5.7318,-0.9073 7.7207,-2.7207 1.9889,-1.81343 2.9844,-4.18255 2.9844,-7.10743 0,-3.04188 -1.0248,-5.52855 -3.0723,-7.45898 -2.0474,-1.93041 -4.5909,-2.89453 -7.6328,-2.89453 h -39.6621 v -29.83399 h 47.5586 c 3.1589,0 5.7337,-0.90729 7.7227,-2.7207 1.9889,-1.81344 2.9824,-4.18254 2.9824,-7.10742 0,-3.04188 -1.0229,-5.52856 -3.0703,-7.45899 -2.0474,-1.93041 -4.5929,-2.89453 -7.6348,-2.89453 z m 94.7656,0 c -3.0418,0 -5.5873,1.02288 -7.6347,3.07031 -2.0474,2.04742 -3.0703,4.59289 -3.0703,7.63477 v 102.31055 c 0,2.8079 0.8779,5.14956 2.6328,7.02148 1.7549,1.87193 4.0359,2.80664 6.8437,2.80664 2.9249,0 5.2941,-0.93471 7.1075,-2.80664 1.8134,-1.87192 2.7187,-4.21358 2.7187,-7.02148 v -74.9336 l 64.4063,81.7793 c 0.7019,0.93596 1.8424,1.66688 3.4218,2.19336 1.5795,0.52648 3.1883,0.78906 4.8262,0.78906 3.0419,0 5.5873,-1.02288 7.6348,-3.07031 2.0474,-2.04741 3.0703,-4.59289 3.0703,-7.63477 V 459.89844 c 0,-2.8079 -0.8779,-5.14957 -2.6328,-7.02149 -1.755,-1.87193 -4.0359,-2.80664 -6.8438,-2.80664 -2.8079,0 -5.1182,0.93471 -6.9316,2.80664 -1.8135,1.87192 -2.7207,4.21359 -2.7207,7.02149 v 75.46094 l -63.8789,-81.42774 c -0.819,-1.16996 -2.077,-2.10662 -3.7735,-2.80859 -1.6964,-0.70196 -3.4208,-1.05274 -5.1758,-1.05274 z m 115.4727,0 c -3.0419,0 -5.5854,0.93471 -7.6328,2.80664 -2.0474,1.87192 -3.0723,4.27044 -3.0723,7.19532 0,3.04188 0.9955,5.49917 2.9844,7.37109 1.9889,1.87192 4.5618,2.80859 7.7207,2.80859 h 27.5527 v 91.95703 c 0,3.04188 1.0523,5.58736 3.1583,7.63477 2.1059,2.04743 4.7983,3.07031 8.0742,3.07031 3.2759,0 6.0251,-1.02288 8.248,-3.07031 2.2229,-2.04741 3.334,-4.59289 3.334,-7.63477 v -91.95703 h 27.5527 c 3.1589,0 5.7318,-0.90729 7.7207,-2.7207 1.989,-1.81344 2.9844,-4.24131 2.9844,-7.2832 0,-3.04188 -0.9954,-5.49918 -2.9844,-7.3711 -1.9889,-1.87193 -4.5618,-2.80664 -7.7207,-2.80664 z M 1406.043,470.25195 H 1435 c 10.4126,0 18.2802,3.88976 23.6035,11.66993 5.3233,7.78018 7.9844,17.63678 7.9844,29.57031 0,11.93353 -2.6317,21.79011 -7.8965,29.57031 -5.2648,7.78017 -13.1618,11.66992 -23.6914,11.66992 h -28.957 z"
       id="STUDENT-ROBOTICS"
       inkscape:connector-curvature="0" />
    <path
       d="m 1704.2254,234.30673 c -26.4204,33.08863 -59.1061,61.51606 -96.9503,83.36542 -106.6042,61.54796 -237.946,61.54796 -344.5502,0 -36.7332,-21.20791 -68.6063,-48.61334 -94.6072,-80.46331 138.0589,-143.184106 252.1956,-108.30151 252.1956,-159.138696 0,-52.96259 -196.9227,-87.8232197 -196.9227,-124.568626 0,-36.58555 115.6779,-64.375038 214.1903,-64.616158 98.5124,0.24112 214.1903,28.030608 214.1903,64.616158 0,36.7454063 -196.9227,71.606036 -196.9227,124.568626 0,50.490796 112.5866,16.42597 249.3769,156.236596 z m 28.6528,-41.86657 C 1659.5514,130.9889 1591.2823,92.865554 1528.0711,78.070144 c 31.3696,-25.29179 207.8537,-89.630696 207.8537,-124.071126 0,-34.23766 -151.7502,-116.077608 -297.0535,-117.040088 v -0.009 c -0.43,0 -0.8602,7.2e-4 -1.2904,0.002 -0.4302,-0.001 -0.8604,-0.002 -1.2905,-0.002 v 0.009 c -145.3032,0.96248 -297.0534,82.802428 -297.0534,117.040088 0,34.44043 176.4841,98.779336 207.8537,124.071126 -64.2023,15.02738 -133.6222,54.119886 -208.2597,117.277536 -31.1454,-52.39338 -48.3812,-113.001996 -48.3812,-176.064736 0,-123.095914 65.6709,-236.841244 172.2751,-298.389214 106.6042,-61.54796 237.946,-61.54796 344.5502,0 106.6042,61.54797 172.2751,175.2933 172.2751,298.389214 0,61.89956 -16.6059,121.434686 -46.672,173.157216 z"
       id="Combined-Shape"
       inkscape:connector-curvature="0"
       style="fill:#ffffff;fill-rule:nonzero;stroke-width:1.43562579" />
    <path
       style="fill:#ffffff;stroke-width:0.70196825"
       d="m 1196.5068,639.96131 c -11.3485,0 -21.5559,2.80806 -30.623,8.42383 -9.0671,5.61579 -16.147,13.24829 -21.2363,22.90039 -5.0893,9.65212 -7.6329,20.26903 -7.6329,31.85156 0,11.58253 2.5436,22.2014 7.6329,31.85352 5.0893,9.6521 12.1692,17.2846 21.2363,22.90039 9.0671,5.61577 19.2745,8.42383 30.623,8.42383 11.3486,0 21.556,-2.80806 30.6231,-8.42383 9.0671,-5.61579 16.1744,-13.24829 21.3222,-22.90039 5.1478,-9.65212 7.7208,-20.27099 7.7208,-31.85352 0,-11.58253 -2.573,-22.19944 -7.7208,-31.85156 -5.1478,-9.6521 -12.2551,-17.2846 -21.3222,-22.90039 -9.0671,-5.61577 -19.2745,-8.42383 -30.6231,-8.42383 z m 236.9141,0 c -11.3486,0 -21.5559,2.80806 -30.623,8.42383 -9.0672,5.61579 -16.1451,13.24829 -21.2344,22.90039 -5.0893,9.65212 -7.6348,20.26903 -7.6348,31.85156 0,11.58253 2.5455,22.2014 7.6348,31.85352 5.0893,9.6521 12.1672,17.2846 21.2344,22.90039 9.0671,5.61577 19.2744,8.42383 30.623,8.42383 11.3485,0 21.5559,-2.80806 30.6231,-8.42383 9.0671,-5.61579 16.1744,-13.24829 21.3222,-22.90039 5.1478,-9.65212 7.7227,-20.27099 7.7227,-31.85352 0,-11.58253 -2.5749,-22.19944 -7.7227,-31.85156 -5.1478,-9.6521 -12.2551,-17.2846 -21.3222,-22.90039 -9.0672,-5.61577 -19.2746,-8.42383 -30.6231,-8.42383 z m 361.6895,0 c -8.1897,0 -15.6185,1.43243 -22.2872,4.29883 -6.6687,2.86637 -11.934,7.02066 -15.7949,12.46094 -3.8609,5.44028 -5.791,11.84412 -5.791,19.21484 0,20.12318 12.8096,32.05694 38.4317,35.80078 10.1785,1.52093 17.6073,3.77443 22.2871,6.75781 4.6799,2.98337 7.0214,7.1063 7.0214,12.3711 0,4.32881 -2.3691,7.95598 -7.1074,10.88086 -4.7383,2.92489 -10.3838,4.38672 -16.9355,4.38672 -6.0838,0 -11.3492,-0.8779 -15.795,-2.63282 -4.4458,-1.75493 -9.0076,-4.56105 -13.6875,-8.42187 -1.7549,-1.40395 -3.7439,-2.10742 -5.9667,-2.10742 -2.808,0 -5.2065,1.02485 -7.1954,3.07226 -1.9889,2.04743 -2.9843,4.41651 -2.9843,7.10743 0,3.39284 1.5793,6.49289 4.7382,9.30078 5.7328,5.0308 11.876,8.59915 18.4278,10.70507 6.5517,2.10592 14.0392,3.15821 22.4629,3.15821 7.9556,0 15.3844,-1.49124 22.2871,-4.47461 6.9027,-2.9834 12.4307,-7.25327 16.584,-12.81055 4.1534,-5.55728 6.2304,-12.02188 6.2304,-19.39258 0,-7.83868 -1.5207,-14.12692 -4.5625,-18.86523 -3.0419,-4.7383 -7.5763,-8.48107 -13.6015,-11.23047 -6.0253,-2.7494 -14.0693,-5.00288 -24.1309,-6.75781 -8.8917,-1.63792 -15.4131,-3.74252 -19.5664,-6.31641 -4.1533,-2.57388 -6.2305,-6.37742 -6.2305,-11.4082 0,-4.44583 2.0184,-8.04357 6.0547,-10.79297 4.0363,-2.74939 9.7407,-4.12305 17.1114,-4.12305 4.3289,0 9.212,1.0229 14.6523,3.07032 5.4402,2.04742 9.6827,4.29896 12.7246,6.75585 1.4039,1.05296 2.9833,1.58008 4.7383,1.58008 2.6908,0 5.0306,-1.0229 7.0195,-3.07031 1.9889,-2.04743 2.9824,-4.41651 2.9824,-7.10742 0,-3.50985 -1.6969,-6.60987 -5.0898,-9.30078 -4.3288,-3.62685 -9.7392,-6.55247 -16.2324,-8.77539 -6.4933,-2.22292 -13.4243,-3.33399 -20.7949,-3.33399 z m -87.045,0.87696 c -12.0505,-10e-6 -22.8712,2.66109 -32.4648,7.98437 -9.5937,5.32329 -17.1105,12.72456 -22.5508,22.20117 -5.4403,9.47661 -8.1621,20.17975 -8.1621,32.11328 0,13.45445 2.8668,24.91986 8.5996,34.39649 5.7328,9.47662 13.3966,16.64275 22.9902,21.49804 9.5936,4.85532 20.1223,7.28321 31.5879,7.28321 10.2956,0 20.0072,-2.28094 29.1328,-6.84375 1.755,-0.81896 3.0992,-1.98882 4.0352,-3.50977 0.9359,-1.52093 1.4043,-3.21792 1.4043,-5.08984 0,-2.57389 -0.8779,-4.97242 -2.6328,-7.19531 -2.106,-2.57391 -4.6789,-3.85938 -7.7207,-3.85938 -1.638,0 -3.5113,0.46638 -5.6172,1.40234 -5.2648,2.69088 -11.4649,4.03711 -18.6016,4.03711 -12.0505,0 -21.7896,-3.56837 -29.2187,-10.70507 -7.4292,-7.13672 -11.1445,-17.60862 -11.1445,-31.41407 0,-8.07268 1.6381,-15.23685 4.914,-21.49609 3.2758,-6.25925 7.9552,-11.11505 14.0391,-14.56641 6.0837,-3.45139 13.2204,-5.17773 21.4101,-5.17773 6.6687,0 12.8688,1.3462 18.6016,4.03711 1.9889,1.05296 3.9778,1.58008 5.9668,1.58008 2.9248,0 5.3234,-1.22864 7.1953,-3.68555 1.7549,-2.33989 2.6328,-4.73842 2.6328,-7.19531 0,-4.09484 -1.8126,-7.07925 -5.4394,-8.95118 -8.8917,-4.56281 -18.5445,-6.84374 -28.9571,-6.84374 z m -667.3964,0.87695 c -3.0419,0 -5.5855,1.02483 -7.6329,3.07226 -2.0474,2.04741 -3.0722,4.59094 -3.0722,7.63282 v 101.43554 c 0,3.04188 1.258,5.58541 3.7734,7.63282 2.5154,2.04743 5.4704,3.07226 8.8633,3.07226 2.8079,0 5.0594,-0.99547 6.7559,-2.98437 1.6964,-1.98895 2.5449,-4.56184 2.5449,-7.72071 v -34.04687 h 32.8164 c 5.069,0.89717 9.0963,1.22864 11.8457,3.68554 2.7494,2.45689 4.125,5.79208 4.125,10.00391 0,14.74141 4.2111,24.50981 12.6347,29.30664 2.34,1.28694 4.9129,1.93164 7.7207,1.93164 3.6269,0 6.3193,-1.05426 8.0743,-3.16015 1.4039,-1.75495 2.1054,-3.68511 2.1054,-5.79102 0,-1.63793 -0.4389,-3.21733 -1.3164,-4.73828 -0.8774,-1.52093 -2.0767,-2.74959 -3.5976,-3.68555 -1.638,-0.81899 -2.6903,-2.01821 -3.1582,-3.59765 -0.468,-1.57944 -0.9364,-4.18175 -1.4043,-7.8086 0,-1.75492 -0.1764,-3.56948 -0.5274,-5.4414 -0.7019,-8.65765 -4.7386,-15.55924 -12.1093,-20.70704 5.0308,-3.27586 9.1262,-7.69272 12.2851,-13.25 3.1589,-5.55727 4.7383,-11.26156 4.7383,-17.11132 0,-7.13672 -1.6088,-13.56997 -4.8262,-19.30274 -3.2173,-5.73276 -7.5166,-10.23782 -12.8984,-13.51367 -5.3818,-3.27588 -11.1135,-4.91406 -17.1973,-4.91406 z m 240.7753,0 c -3.0418,0 -5.5854,1.02483 -7.6328,3.07226 -2.0474,2.04741 -3.0722,4.59094 -3.0722,7.63282 v 101.43554 c 0,3.04188 1.0248,5.58541 3.0722,7.63282 2.0474,2.04743 4.591,3.07226 7.6328,3.07226 h 43.6973 c 10.9975,0 20.474,-2.74928 28.4297,-8.24805 7.9556,-5.4988 11.9336,-15.21037 11.9336,-29.13281 0,-7.95569 -1.9596,-14.4477 -5.8789,-19.47851 -3.9193,-5.0308 -8.9789,-8.77554 -15.1797,-11.23243 4.6798,-2.33989 8.2776,-5.52812 10.793,-9.56445 2.5154,-4.03635 3.7734,-8.68637 3.7734,-13.95117 0,-20.82517 -11.1146,-31.23828 -33.3437,-31.23828 z m 225.5079,0 c -3.0419,0 -5.5874,0.93666 -7.6348,2.80859 -2.0474,1.87192 -3.0703,4.27043 -3.0703,7.19531 0,3.04188 0.9934,5.49918 2.9824,7.3711 1.9889,1.87192 4.5637,2.80664 7.7227,2.80664 h 27.5527 v 91.95898 c 0,3.04188 1.0522,5.58541 3.1582,7.63282 2.1059,2.04743 4.7964,3.07226 8.0723,3.07226 3.2758,0 6.0251,-1.02483 8.248,-3.07226 2.2229,-2.04741 3.334,-4.59094 3.334,-7.63282 v -91.95898 h 27.5527 c 3.0909,0.6516 5.7337,-0.90534 7.7227,-2.71875 1.9889,-1.81344 2.9824,-4.24131 2.9824,-7.2832 0,-3.04188 -0.9935,-5.49918 -2.9824,-7.3711 -1.989,-1.87193 -4.5638,-2.80859 -7.7227,-2.80859 z m 112.666,0 c -3.2759,0 -5.9664,1.02483 -8.0723,3.07226 -2.106,2.04741 -3.1602,4.59094 -3.1602,7.63282 v 101.43554 c 0,3.04188 1.0249,5.58541 3.0723,7.63282 2.0474,2.04743 4.6497,3.07226 7.8086,3.07226 2.9248,0 5.4997,-1.02483 7.7227,-3.07226 2.2228,-2.04741 3.3339,-4.59094 3.3339,-7.63282 V 652.4203 c 0,-3.04188 -1.0542,-5.58541 -3.1601,-7.63282 -2.106,-2.04743 -4.6201,-3.07226 -7.5449,-3.07226 z m -423.1114,19.30469 c 7.0197,0 13.3374,1.87139 18.9532,5.61523 5.6157,3.74385 10.0032,8.80344 13.1621,15.17969 3.1589,6.37622 4.7383,13.48357 4.7383,21.32226 0,7.83869 -1.5794,14.94603 -4.7383,21.32227 -3.1589,6.37625 -7.5464,11.43779 -13.1621,15.18164 -5.6158,3.74384 -11.9335,5.61523 -18.9532,5.61523 -7.1367,0 -13.4837,-1.84198 -19.041,-5.52734 -5.5573,-3.68536 -9.8859,-8.74691 -12.9863,-15.18164 -3.1004,-6.43475 -4.6504,-13.57147 -4.6504,-21.41016 0,-7.83869 1.55,-14.97345 4.6504,-21.4082 3.1004,-6.43473 7.429,-11.49631 12.9863,-15.18164 5.5573,-3.68536 11.9043,-5.52734 19.041,-5.52734 z m 236.9141,0 c 7.0197,0 13.3374,1.87139 18.9531,5.61523 5.6158,3.74385 10.0033,8.80344 13.1621,15.17969 3.1589,6.37622 4.7383,13.48357 4.7383,21.32226 0,7.83869 -1.5794,14.94603 -4.7383,21.32227 -3.1588,6.37625 -7.5463,11.43779 -13.1621,15.18164 -5.6157,3.74384 -11.9334,5.61523 -18.9531,5.61523 -7.1367,0 -13.4837,-1.84198 -19.041,-5.52734 -5.5573,-3.68536 -9.886,-8.74691 -12.9863,-15.18164 -3.1004,-6.43475 -4.6504,-13.57147 -4.6504,-21.41016 0,-7.83869 1.55,-14.97345 4.6504,-21.4082 3.1003,-6.43473 7.429,-11.49631 12.9863,-15.18164 5.5573,-3.68536 11.9043,-5.52734 19.041,-5.52734 z m -381.5195,0.87695 h 38.4316 c 2.0823,0.3147 4.1537,0.8191 6.1426,2.45703 1.9889,1.63792 3.6271,3.83263 4.9141,6.58203 1.2869,2.74937 1.9296,5.76123 1.9296,9.03711 0,3.86082 -0.6427,7.45861 -1.9296,10.79297 -1.287,3.33436 -2.9252,5.99545 -4.9141,7.98437 -1.9889,1.98892 -4.0367,2.98438 -6.1426,2.98438 h -38.4316 z m 241.6523,0.52734 h 28.9551 c 4.3288,0 7.6934,1.19926 10.0918,3.59766 2.3984,2.3984 3.5976,5.99617 3.5976,10.79297 0,3.97784 -1.3168,7.13664 -3.9492,9.47656 -2.6324,2.33989 -5.703,3.50977 -9.2129,3.50977 h -29.4824 z m 0,48.08399 h 30.3594 c 5.2648,0 9.711,1.05423 13.3379,3.16015 3.6268,2.10592 5.4394,6.60899 5.4394,13.51172 0,5.61576 -1.55,9.88567 -4.6504,12.81055 -3.1003,2.92486 -7.3996,4.38867 -12.8984,4.38867 h -31.5879 z"
       id="STUDENT-ROBOTICS-1"
       inkscape:connector-curvature="0" />
  </g>
</svg>
