<?xml version="1.0" encoding="UTF-8" standalone="no"?>
<!DOCTYPE svg PUBLIC "-//W3C//DTD SVG 1.1//EN" "http://www.w3.org/Graphics/SVG/1.1/DTD/svg11.dtd">
<svg width="100%" height="100%" viewBox="0 0 2870 480" version="1.1" xmlns="http://www.w3.org/2000/svg" xmlns:xlink="http://www.w3.org/1999/xlink" xml:space="preserve" xmlns:serif="http://www.serif.com/" style="fill-rule:evenodd;clip-rule:evenodd;stroke-linejoin:round;stroke-miterlimit:2;">
    <g id="Symbol-and-Text">
        <path id="STUDENT-ROBOTICS" d="M622,328.5C610,328.5 599.333,327 590,324C580.667,321 571.917,315.917 563.75,308.75C559.25,304.75 557,300.333 557,295.5C557,291.667 558.417,288.292 561.25,285.375C564.083,282.458 567.5,281 571.5,281C574.667,281 577.5,282 580,284C586.667,289.5 593.167,293.5 599.5,296C605.833,298.5 613.333,299.75 622,299.75C631.333,299.75 639.375,297.667 646.125,293.5C652.875,289.333 656.25,284.167 656.25,278C656.25,270.5 652.917,264.625 646.25,260.375C639.583,256.125 629,252.917 614.5,250.75C578,245.417 559.75,228.417 559.75,199.75C559.75,189.25 562.5,180.125 568,172.375C573.5,164.625 581,158.708 590.5,154.625C600,150.542 610.583,148.5 622.25,148.5C632.75,148.5 642.625,150.083 651.875,153.25C661.125,156.417 668.833,160.583 675,165.75C679.833,169.583 682.25,174 682.25,179C682.25,182.833 680.833,186.208 678,189.125C675.167,192.042 671.833,193.5 668,193.5C665.5,193.5 663.25,192.75 661.25,191.25C656.917,187.75 650.875,184.542 643.125,181.625C635.375,178.708 628.417,177.25 622.25,177.25C611.75,177.25 603.625,179.208 597.875,183.125C592.125,187.042 589.25,192.167 589.25,198.5C589.25,205.667 592.208,211.083 598.125,214.75C604.042,218.417 613.333,221.417 626,223.75C640.333,226.25 651.792,229.458 660.375,233.375C668.958,237.292 675.417,242.625 679.75,249.375C684.083,256.125 686.25,265.083 686.25,276.25C686.25,286.75 683.292,295.958 677.375,303.875C671.458,311.792 663.583,317.875 653.75,322.125C643.917,326.375 633.333,328.5 622,328.5ZM822,151C826.5,151 830.167,152.333 833,155C835.833,157.667 837.25,161.167 837.25,165.5C837.25,169.833 835.833,173.292 833,175.875C830.167,178.458 826.5,179.75 822,179.75L782.75,179.75L782.75,310.75C782.75,315.083 781.167,318.708 778,321.625C774.833,324.542 770.917,326 766.25,326C761.583,326 757.75,324.542 754.75,321.625C751.75,318.708 750.25,315.083 750.25,310.75L750.25,179.75L711,179.75C706.5,179.75 702.833,178.417 700,175.75C697.167,173.083 695.75,169.583 695.75,165.25C695.75,161.083 697.208,157.667 700.125,155C703.042,152.333 706.667,151 711,151L822,151ZM979.75,150.75C984.083,150.75 987.583,152.167 990.25,155C992.917,157.833 994.25,161.5 994.25,166L994.25,256.5C994.25,270.333 991.333,282.583 985.5,293.25C979.667,303.917 971.5,312.25 961,318.25C950.5,324.25 938.5,327.25 925,327.25C911.5,327.25 899.458,324.25 888.875,318.25C878.292,312.25 870.083,303.917 864.25,293.25C858.417,282.583 855.5,270.333 855.5,256.5L855.5,166C855.5,161.667 857,158.042 860,155.125C863,152.208 866.833,150.75 871.5,150.75C875.5,150.75 879,152.208 882,155.125C885,158.042 886.5,161.667 886.5,166L886.5,256.5C886.5,264.5 888.25,271.625 891.75,277.875C895.25,284.125 899.958,288.917 905.875,292.25C911.792,295.583 918.167,297.25 925,297.25C932.167,297.25 938.875,295.583 945.125,292.25C951.375,288.917 956.375,284.125 960.125,277.875C963.875,271.625 965.75,264.5 965.75,256.5L965.75,166C965.75,161.5 967,157.833 969.5,155C972,152.167 975.417,150.75 979.75,150.75ZM1098.75,151C1114.42,151 1127.88,154.875 1139.12,162.625C1150.38,170.375 1158.96,180.875 1164.88,194.125C1170.79,207.375 1173.75,222.167 1173.75,238.5C1173.75,254.833 1170.79,269.625 1164.88,282.875C1158.96,296.125 1150.38,306.625 1139.12,314.375C1127.88,322.125 1114.42,326 1098.75,326L1039,326C1034.67,326 1031.04,324.542 1028.12,321.625C1025.21,318.708 1023.75,315.083 1023.75,310.75L1023.75,166.25C1023.75,161.917 1025.21,158.292 1028.12,155.375C1031.04,152.458 1034.67,151 1039,151L1098.75,151ZM1096.25,297.25C1111.25,297.25 1122.5,291.708 1130,280.625C1137.5,269.542 1141.25,255.5 1141.25,238.5C1141.25,221.5 1137.46,207.458 1129.88,196.375C1122.29,185.292 1111.08,179.75 1096.25,179.75L1055,179.75L1055,297.25L1096.25,297.25ZM1293.5,297.25C1297.83,297.25 1301.46,298.708 1304.38,301.625C1307.29,304.542 1308.75,307.917 1308.75,311.75C1308.75,315.917 1307.29,319.333 1304.38,322C1301.46,324.667 1297.83,326 1293.5,326L1209.75,326C1205.42,326 1201.79,324.542 1198.88,321.625C1195.96,318.708 1194.5,315.083 1194.5,310.75L1194.5,166.25C1194.5,161.917 1195.96,158.292 1198.88,155.375C1201.79,152.458 1205.42,151 1209.75,151L1293.5,151C1297.83,151 1301.46,152.375 1304.38,155.125C1307.29,157.875 1308.75,161.417 1308.75,165.75C1308.75,169.917 1307.33,173.292 1304.5,175.875C1301.67,178.458 1298,179.75 1293.5,179.75L1225.75,179.75L1225.75,222.25L1282.25,222.25C1286.58,222.25 1290.21,223.625 1293.12,226.375C1296.04,229.125 1297.5,232.667 1297.5,237C1297.5,241.167 1296.08,244.542 1293.25,247.125C1290.42,249.708 1286.75,251 1282.25,251L1225.75,251L1225.75,297.25L1293.5,297.25ZM1462.25,151C1466.25,151 1469.5,152.333 1472,155C1474.5,157.667 1475.75,161 1475.75,165L1475.75,310.75C1475.75,315.083 1474.29,318.708 1471.38,321.625C1468.46,324.542 1464.83,326 1460.5,326C1458.17,326 1455.88,325.625 1453.62,324.875C1451.38,324.125 1449.75,323.083 1448.75,321.75L1357,205.25L1357,312C1357,316 1355.71,319.333 1353.12,322C1350.54,324.667 1347.17,326 1343,326C1339,326 1335.75,324.667 1333.25,322C1330.75,319.333 1329.5,316 1329.5,312L1329.5,166.25C1329.5,161.917 1330.96,158.292 1333.88,155.375C1336.79,152.458 1340.42,151 1344.75,151C1347.25,151 1349.71,151.5 1352.12,152.5C1354.54,153.5 1356.33,154.833 1357.5,156.5L1448.5,272.5L1448.5,165C1448.5,161 1449.79,157.667 1452.38,155C1454.96,152.333 1458.25,151 1462.25,151ZM1620.25,151C1624.75,151 1628.42,152.333 1631.25,155C1634.08,157.667 1635.5,161.167 1635.5,165.5C1635.5,169.833 1634.08,173.292 1631.25,175.875C1628.42,178.458 1624.75,179.75 1620.25,179.75L1581,179.75L1581,310.75C1581,315.083 1579.42,318.708 1576.25,321.625C1573.08,324.542 1569.17,326 1564.5,326C1559.83,326 1556,324.542 1553,321.625C1550,318.708 1548.5,315.083 1548.5,310.75L1548.5,179.75L1509.25,179.75C1504.75,179.75 1501.08,178.417 1498.25,175.75C1495.42,173.083 1494,169.583 1494,165.25C1494,161.083 1495.46,157.667 1498.38,155C1501.29,152.333 1504.92,151 1509.25,151L1620.25,151ZM1853,301.5C1855.17,302.833 1856.88,304.583 1858.12,306.75C1859.38,308.917 1860,311.167 1860,313.5C1860,316.5 1859,319.25 1857,321.75C1854.5,324.75 1850.67,326.25 1845.5,326.25C1841.5,326.25 1837.83,325.333 1834.5,323.5C1822.5,316.667 1816.5,302.75 1816.5,281.75C1816.5,275.75 1814.54,271 1810.62,267.5C1806.71,264 1801.08,262.25 1793.75,262.25L1747,262.25L1747,310.75C1747,315.25 1745.79,318.917 1743.38,321.75C1740.96,324.583 1737.75,326 1733.75,326C1728.92,326 1724.71,324.542 1721.12,321.625C1717.54,318.708 1715.75,315.083 1715.75,310.75L1715.75,166.25C1715.75,161.917 1717.21,158.292 1720.12,155.375C1723.04,152.458 1726.67,151 1731,151L1803,151C1811.67,151 1819.83,153.333 1827.5,158C1835.17,162.667 1841.29,169.083 1845.88,177.25C1850.46,185.417 1852.75,194.583 1852.75,204.75C1852.75,213.083 1850.5,221.208 1846,229.125C1841.5,237.042 1835.67,243.333 1828.5,248C1839,255.333 1844.75,265.167 1845.75,277.5C1846.25,280.167 1846.5,282.75 1846.5,285.25C1847.17,290.417 1847.83,294.125 1848.5,296.375C1849.17,298.625 1850.67,300.333 1853,301.5ZM1801.75,236.5C1804.75,236.5 1807.67,235.083 1810.5,232.25C1813.33,229.417 1815.67,225.625 1817.5,220.875C1819.33,216.125 1820.25,211 1820.25,205.5C1820.25,200.833 1819.33,196.542 1817.5,192.625C1815.67,188.708 1813.33,185.583 1810.5,183.25C1807.67,180.917 1804.75,179.75 1801.75,179.75L1747,179.75L1747,236.5L1801.75,236.5ZM2038,238.5C2038,255 2034.33,270.125 2027,283.875C2019.67,297.625 2009.54,308.5 1996.62,316.5C1983.71,324.5 1969.17,328.5 1953,328.5C1936.83,328.5 1922.29,324.5 1909.38,316.5C1896.46,308.5 1886.38,297.625 1879.12,283.875C1871.88,270.125 1868.25,255 1868.25,238.5C1868.25,222 1871.88,206.875 1879.12,193.125C1886.38,179.375 1896.46,168.5 1909.38,160.5C1922.29,152.5 1936.83,148.5 1953,148.5C1969.17,148.5 1983.71,152.5 1996.62,160.5C2009.54,168.5 2019.67,179.375 2027,193.125C2034.33,206.875 2038,222 2038,238.5ZM2005.5,238.5C2005.5,227.333 2003.25,217.208 1998.75,208.125C1994.25,199.042 1988,191.833 1980,186.5C1972,181.167 1963,178.5 1953,178.5C1942.83,178.5 1933.79,181.125 1925.88,186.375C1917.96,191.625 1911.79,198.833 1907.38,208C1902.96,217.167 1900.75,227.333 1900.75,238.5C1900.75,249.667 1902.96,259.833 1907.38,269C1911.79,278.167 1917.96,285.375 1925.88,290.625C1933.79,295.875 1942.83,298.5 1953,298.5C1963,298.5 1972,295.833 1980,290.5C1988,285.167 1994.25,277.958 1998.75,268.875C2003.25,259.792 2005.5,249.667 2005.5,238.5ZM2163.75,229C2172.58,232.5 2179.79,237.833 2185.38,245C2190.96,252.167 2193.75,261.417 2193.75,272.75C2193.75,292.583 2188.08,306.417 2176.75,314.25C2165.42,322.083 2151.92,326 2136.25,326L2074,326C2069.67,326 2066.04,324.542 2063.12,321.625C2060.21,318.708 2058.75,315.083 2058.75,310.75L2058.75,166.25C2058.75,161.917 2060.21,158.292 2063.12,155.375C2066.04,152.458 2069.67,151 2074,151L2137,151C2168.67,151 2184.5,165.833 2184.5,195.5C2184.5,203 2182.71,209.625 2179.12,215.375C2175.54,221.125 2170.42,225.667 2163.75,229ZM2152,201C2152,194.167 2150.29,189.042 2146.88,185.625C2143.46,182.208 2138.67,180.5 2132.5,180.5L2091.25,180.5L2091.25,219.5L2133.25,219.5C2138.25,219.5 2142.62,217.833 2146.38,214.5C2150.12,211.167 2152,206.667 2152,201ZM2136.25,297.25C2144.08,297.25 2150.21,295.167 2154.62,291C2159.04,286.833 2161.25,280.75 2161.25,272.75C2161.25,262.917 2158.67,256.5 2153.5,253.5C2148.33,250.5 2142,249 2134.5,249L2091.25,249L2091.25,297.25L2136.25,297.25ZM2375.5,238.5C2375.5,255 2371.83,270.125 2364.5,283.875C2357.17,297.625 2347.04,308.5 2334.12,316.5C2321.21,324.5 2306.67,328.5 2290.5,328.5C2274.33,328.5 2259.79,324.5 2246.88,316.5C2233.96,308.5 2223.88,297.625 2216.62,283.875C2209.38,270.125 2205.75,255 2205.75,238.5C2205.75,222 2209.38,206.875 2216.62,193.125C2223.88,179.375 2233.96,168.5 2246.88,160.5C2259.79,152.5 2274.33,148.5 2290.5,148.5C2306.67,148.5 2321.21,152.5 2334.12,160.5C2347.04,168.5 2357.17,179.375 2364.5,193.125C2371.83,206.875 2375.5,222 2375.5,238.5ZM2343,238.5C2343,227.333 2340.75,217.208 2336.25,208.125C2331.75,199.042 2325.5,191.833 2317.5,186.5C2309.5,181.167 2300.5,178.5 2290.5,178.5C2280.33,178.5 2271.29,181.125 2263.38,186.375C2255.46,191.625 2249.29,198.833 2244.88,208C2240.46,217.167 2238.25,227.333 2238.25,238.5C2238.25,249.667 2240.46,259.833 2244.88,269C2249.29,278.167 2255.46,285.375 2263.38,290.625C2271.29,295.875 2280.33,298.5 2290.5,298.5C2300.5,298.5 2309.5,295.833 2317.5,290.5C2325.5,285.167 2331.75,277.958 2336.25,268.875C2340.75,259.792 2343,249.667 2343,238.5ZM2506.25,151C2510.75,151 2514.42,152.333 2517.25,155C2520.08,157.667 2521.5,161.167 2521.5,165.5C2521.5,169.833 2520.08,173.292 2517.25,175.875C2514.42,178.458 2510.75,179.75 2506.25,179.75L2467,179.75L2467,310.75C2467,315.083 2465.42,318.708 2462.25,321.625C2459.08,324.542 2455.17,326 2450.5,326C2445.83,326 2442,324.542 2439,321.625C2436,318.708 2434.5,315.083 2434.5,310.75L2434.5,179.75L2395.25,179.75C2390.75,179.75 2387.08,178.417 2384.25,175.75C2381.42,173.083 2380,169.583 2380,165.25C2380,161.083 2381.46,157.667 2384.38,155C2387.29,152.333 2390.92,151 2395.25,151L2506.25,151ZM2571,310.75C2571,315.083 2569.42,318.708 2566.25,321.625C2563.08,324.542 2559.42,326 2555.25,326C2550.75,326 2547.04,324.542 2544.12,321.625C2541.21,318.708 2539.75,315.083 2539.75,310.75L2539.75,166.25C2539.75,161.917 2541.25,158.292 2544.25,155.375C2547.25,152.458 2551.08,151 2555.75,151C2559.92,151 2563.5,152.458 2566.5,155.375C2569.5,158.292 2571,161.917 2571,166.25L2571,310.75ZM2723,159.5C2728.17,162.167 2730.75,166.417 2730.75,172.25C2730.75,175.75 2729.5,179.167 2727,182.5C2724.33,186 2720.92,187.75 2716.75,187.75C2713.92,187.75 2711.08,187 2708.25,185.5C2700.08,181.667 2691.25,179.75 2681.75,179.75C2670.08,179.75 2659.92,182.208 2651.25,187.125C2642.58,192.042 2635.92,198.958 2631.25,207.875C2626.58,216.792 2624.25,227 2624.25,238.5C2624.25,258.167 2629.54,273.083 2640.12,283.25C2650.71,293.417 2664.58,298.5 2681.75,298.5C2691.92,298.5 2700.75,296.583 2708.25,292.75C2711.25,291.417 2713.92,290.75 2716.25,290.75C2720.58,290.75 2724.25,292.583 2727.25,296.25C2729.75,299.417 2731,302.833 2731,306.5C2731,309.167 2730.33,311.583 2729,313.75C2727.67,315.917 2725.75,317.583 2723.25,318.75C2710.25,325.25 2696.42,328.5 2681.75,328.5C2665.42,328.5 2650.42,325.042 2636.75,318.125C2623.08,311.208 2612.17,301 2604,287.5C2595.83,274 2591.75,257.667 2591.75,238.5C2591.75,221.5 2595.62,206.25 2603.38,192.75C2611.12,179.25 2621.83,168.708 2635.5,161.125C2649.17,153.542 2664.58,149.75 2681.75,149.75C2696.58,149.75 2710.33,153 2723,159.5ZM2805.5,328.5C2793.5,328.5 2782.83,327 2773.5,324C2764.17,321 2755.42,315.917 2747.25,308.75C2742.75,304.75 2740.5,300.333 2740.5,295.5C2740.5,291.667 2741.92,288.292 2744.75,285.375C2747.58,282.458 2751,281 2755,281C2758.17,281 2761,282 2763.5,284C2770.17,289.5 2776.67,293.5 2783,296C2789.33,298.5 2796.83,299.75 2805.5,299.75C2814.83,299.75 2822.88,297.667 2829.62,293.5C2836.38,289.333 2839.75,284.167 2839.75,278C2839.75,270.5 2836.42,264.625 2829.75,260.375C2823.08,256.125 2812.5,252.917 2798,250.75C2761.5,245.417 2743.25,228.417 2743.25,199.75C2743.25,189.25 2746,180.125 2751.5,172.375C2757,164.625 2764.5,158.708 2774,154.625C2783.5,150.542 2794.08,148.5 2805.75,148.5C2816.25,148.5 2826.12,150.083 2835.38,153.25C2844.62,156.417 2852.33,160.583 2858.5,165.75C2863.33,169.583 2865.75,174 2865.75,179C2865.75,182.833 2864.33,186.208 2861.5,189.125C2858.67,192.042 2855.33,193.5 2851.5,193.5C2849,193.5 2846.75,192.75 2844.75,191.25C2840.42,187.75 2834.38,184.542 2826.62,181.625C2818.88,178.708 2811.92,177.25 2805.75,177.25C2795.25,177.25 2787.12,179.208 2781.38,183.125C2775.62,187.042 2772.75,192.167 2772.75,198.5C2772.75,205.667 2775.71,211.083 2781.62,214.75C2787.54,218.417 2796.83,221.417 2809.5,223.75C2823.83,226.25 2835.29,229.458 2843.88,233.375C2852.46,237.292 2858.92,242.625 2863.25,249.375C2867.58,256.125 2869.75,265.083 2869.75,276.25C2869.75,286.75 2866.79,295.958 2860.88,303.875C2854.96,311.792 2847.08,317.875 2837.25,322.125C2827.42,326.375 2816.83,328.5 2805.5,328.5Z"/>
        <g transform="matrix(0.969087,0,0,1.0093,-29.103,17.7058)">
            <ellipse cx="277.687" cy="220.246" rx="247.656" ry="237.788" style="fill:white;"/>
        </g>
        <path id="Combined-Shape" d="M427.532,389.777C409.128,412.825 386.361,432.627 360,447.846C285.744,490.718 194.256,490.718 120,447.846C94.413,433.074 72.212,413.984 54.1,391.799C150.267,292.062 229.77,316.36 229.77,280.949C229.77,244.057 92.601,219.775 92.601,194.179C92.601,168.695 173.178,149.338 241.798,149.17C310.418,149.338 390.994,168.695 390.994,194.179C390.994,219.775 253.826,244.057 253.826,280.949C253.826,316.119 332.249,292.391 427.532,389.777L427.532,389.777ZM447.49,360.614C396.414,317.81 348.86,291.255 304.83,280.949C326.68,263.332 449.612,218.516 449.612,194.526C449.612,170.677 343.909,113.671 242.697,113L242.697,112.994C242.397,112.994 242.097,112.995 241.798,112.996C241.498,112.995 241.198,112.994 240.899,112.994L240.899,113C139.686,113.671 33.983,170.677 33.983,194.526C33.983,218.516 156.915,263.332 178.766,280.949C134.045,291.416 85.69,318.647 33.7,362.64C12.006,326.145 -0,283.927 0,240C-0,154.256 45.744,75.026 120,32.154C194.256,-10.718 285.744,-10.718 360,32.154C434.256,75.026 480,154.256 480,240C480,283.117 468.433,324.587 447.49,360.614Z" style="fill:rgb(50,112,237);fill-rule:nonzero;"/>
    </g>
</svg>
