<?xml version="1.0" encoding="UTF-8" standalone="no"?>
<!-- Created with Inkscape (http://www.inkscape.org/) -->
<svg
   xmlns:svg="http://www.w3.org/2000/svg"
   xmlns="http://www.w3.org/2000/svg"
   width="392.95816"
   height="392.95898"
   version="1.0">
  <g
     transform="translate(17.424402,-329.25543)">
    <path
       style="fill:#253571;fill-opacity:1;fill-rule:nonzero;stroke:none;stroke-width:3.5999999;stroke-linecap:butt;stroke-linejoin:miter;stroke-miterlimit:4;stroke-dasharray:none;stroke-dashoffset:0;stroke-opacity:1"
       d="M 544.47223 547.79102 A 196.47467 196.47467 0 1 1  151.52289,547.79102 A 196.47467 196.47467 0 1 1  544.47223 547.79102 z"
       transform="translate(-168.93846,-22.060915)"/>
    <path
       style="opacity:1;fill:none;fill-opacity:1;fill-rule:evenodd;stroke:#ffffff;stroke-width:37.70000076;stroke-linecap:round;stroke-linejoin:round;stroke-miterlimit:4;stroke-opacity:1"
       d="M 38.10219,607.08796 C 38.10219,607.08796 97.7012,559.10572 156.29005,549.00419 C 114.87379,535.8722 84.06414,518.19454 37.59711,490.92043 C 94.16566,462.63615 177.23802,440.47144 178.58737,440.9767 C 179.93672,441.48195 263.8713,462.57523 320.43985,490.85951 C 273.97282,518.13362 244.6784,533.79098 201.74691,549.44835 C 254.27485,556.01435 318.92462,607.02704 318.92462,607.02704"/>
  </g>
</svg>
