<?xml version="1.0" encoding="UTF-8" standalone="no"?>
<!DOCTYPE svg PUBLIC "-//W3C//DTD SVG 1.1//EN" "http://www.w3.org/Graphics/SVG/1.1/DTD/svg11.dtd">
<svg width="760px" height="760px" viewBox="0 0 760 760" version="1.1" xmlns="http://www.w3.org/2000/svg" xmlns:xlink="http://www.w3.org/1999/xlink" xml:space="preserve" xmlns:serif="http://www.serif.com/" style="fill-rule:evenodd;clip-rule:evenodd;stroke-linejoin:round;stroke-miterlimit:2;">
    <g transform="matrix(1.53439,0,0,1.59806,-46.0797,28.0341)">
        <ellipse cx="277.687" cy="220.246" rx="247.656" ry="237.788" style="fill:white;"/>
    </g>
    <g id="Symbol">
        <path id="Combined-Shape" d="M677.026,617.021C647.869,653.568 611.786,684.965 570,709.09C452.428,776.97 307.572,776.97 190,709.09C149.369,685.631 114.13,655.298 85.408,620.04C237.457,462.354 363.127,500.77 363.127,444.729C363.127,386.322 146.134,347.878 146.134,307.356C146.134,266.944 274.016,236.264 382.682,236.096C491.349,236.264 619.23,266.944 619.23,307.356C619.23,347.878 402.238,386.322 402.238,444.729C402.238,500.41 526.296,462.844 677.026,617.021L677.026,617.021ZM708.597,570.85C627.799,503.085 552.575,461.045 482.923,444.729C517.49,416.838 711.961,345.885 711.961,307.904C711.961,270.064 544.009,179.497 383.576,178.827C383.278,178.824 382.98,178.824 382.682,178.824C382.384,178.824 382.086,178.824 381.788,178.824C221.356,179.497 53.404,270.064 53.404,307.904C53.404,345.885 247.875,416.838 282.442,444.729C211.76,461.286 135.338,504.335 53.178,573.875C18.942,516.161 -0,449.429 0,380C-0,244.239 72.428,118.791 190,50.91C307.572,-16.97 452.428,-16.97 570,50.91C687.572,118.791 760,244.239 760,380C760,448.219 741.712,513.835 708.597,570.85Z" style="fill:rgb(50,112,237);fill-rule:nonzero;"/>
    </g>
</svg>
